<mxfile host="app.diagrams.net" modified="2023-06-01T14:31:02.604Z" agent="Mozilla/5.0 (Macintosh; Intel Mac OS X 10_15_7) AppleWebKit/537.36 (KHTML, like Gecko) Chrome/114.0.0.0 Safari/537.36" etag="99S4OBwTL3d36knmJWYl" version="21.3.5" type="google">
  <diagram name="Page-1" id="brjEXMuO1dl3gGtEs275">
    <mxGraphModel grid="1" page="1" gridSize="10" guides="1" tooltips="1" connect="1" arrows="1" fold="1" pageScale="1" pageWidth="1600" pageHeight="1200" background="#ffffff" math="0" shadow="0">
      <root>
        <mxCell id="0" />
        <mxCell id="1" parent="0" />
        <mxCell id="dPL0EmKUZ4wkKmuTThZB-42" value="" style="group;movable=1;resizable=1;rotatable=1;deletable=1;editable=1;locked=0;connectable=1;" connectable="0" vertex="1" parent="1">
          <mxGeometry x="80" y="59" width="664.71" height="501" as="geometry" />
        </mxCell>
        <mxCell id="dPL0EmKUZ4wkKmuTThZB-43" value="" style="group;rounded=0;fillColor=none;strokeColor=none;fontSize=10;movable=1;resizable=1;rotatable=1;deletable=1;editable=1;locked=0;connectable=1;" connectable="0" vertex="1" parent="dPL0EmKUZ4wkKmuTThZB-42">
          <mxGeometry x="143" y="80" width="521.71" height="421" as="geometry" />
        </mxCell>
        <mxCell id="dPL0EmKUZ4wkKmuTThZB-44" value="" style="triangle;direction=north;strokeWidth=1;html=1;fillColor=#666666;strokeColor=#000000;shadow=0;fontSize=10;fontColor=#FFFFFF;align=center;fontStyle=0;whiteSpace=wrap;spacing=10;hachureGap=4;fontFamily=Architects Daughter;fontSource=https%3A%2F%2Ffonts.googleapis.com%2Fcss%3Ffamily%3DArchitects%2BDaughter;fillStyle=solid;sketch=1;curveFitting=1;jiggle=2;movable=1;resizable=1;rotatable=1;deletable=1;editable=1;locked=0;connectable=1;" vertex="1" parent="dPL0EmKUZ4wkKmuTThZB-43">
          <mxGeometry x="-1" width="450.00000000000006" height="350" as="geometry" />
        </mxCell>
        <mxCell id="dPL0EmKUZ4wkKmuTThZB-45" value="" style="triangle;direction=north;strokeWidth=1;html=1;fillColor=#808080;strokeColor=#000000;shadow=0;fontSize=10;fontColor=#FFFFFF;align=center;fontStyle=0;whiteSpace=wrap;spacing=10;sketch=1;hachureGap=4;jiggle=2;curveFitting=1;fontFamily=Architects Daughter;fontSource=https%3A%2F%2Ffonts.googleapis.com%2Fcss%3Ffamily%3DArchitects%2BDaughter;fillStyle=solid;movable=1;resizable=1;rotatable=1;deletable=1;editable=1;locked=0;connectable=1;" vertex="1" parent="dPL0EmKUZ4wkKmuTThZB-43">
          <mxGeometry x="52.290000000000006" width="347.14" height="270" as="geometry" />
        </mxCell>
        <mxCell id="dPL0EmKUZ4wkKmuTThZB-46" value="" style="triangle;direction=north;strokeWidth=1;html=1;fillColor=#B3B3B3;strokeColor=#000000;shadow=0;fontSize=10;fontColor=#FFFFFF;align=center;fontStyle=0;whiteSpace=wrap;spacing=10;sketch=1;hachureGap=4;jiggle=2;curveFitting=1;fontFamily=Architects Daughter;fontSource=https%3A%2F%2Ffonts.googleapis.com%2Fcss%3Ffamily%3DArchitects%2BDaughter;fillStyle=solid;movable=1;resizable=1;rotatable=1;deletable=1;editable=1;locked=0;connectable=1;" vertex="1" parent="dPL0EmKUZ4wkKmuTThZB-43">
          <mxGeometry x="103.57" width="244.28" height="190" as="geometry" />
        </mxCell>
        <mxCell id="dPL0EmKUZ4wkKmuTThZB-47" value="" style="triangle;direction=north;strokeWidth=1;html=1;fillColor=#E6E6E6;strokeColor=#000000;shadow=0;fontSize=10;fontColor=#FFFFFF;align=center;fontStyle=0;whiteSpace=wrap;spacing=10;sketch=1;hachureGap=4;jiggle=2;curveFitting=1;fontFamily=Architects Daughter;fontSource=https%3A%2F%2Ffonts.googleapis.com%2Fcss%3Ffamily%3DArchitects%2BDaughter;fillStyle=solid;movable=1;resizable=1;rotatable=1;deletable=1;editable=1;locked=0;connectable=1;" vertex="1" parent="dPL0EmKUZ4wkKmuTThZB-43">
          <mxGeometry x="156" width="141.42" height="110" as="geometry" />
        </mxCell>
        <mxCell id="dPL0EmKUZ4wkKmuTThZB-48" value="Identify" style="text;strokeColor=none;align=center;fillColor=none;html=1;verticalAlign=middle;whiteSpace=wrap;rounded=0;fontSize=18;fontFamily=Architects Daughter;fontColor=#000000;movable=1;resizable=1;rotatable=1;deletable=1;editable=1;locked=0;connectable=1;" vertex="1" parent="dPL0EmKUZ4wkKmuTThZB-43">
          <mxGeometry x="196.71000000000004" y="310" width="60" height="30" as="geometry" />
        </mxCell>
        <mxCell id="dPL0EmKUZ4wkKmuTThZB-49" value="Organize" style="text;strokeColor=none;align=center;fillColor=none;html=1;verticalAlign=middle;whiteSpace=wrap;rounded=0;fontSize=18;fontFamily=Architects Daughter;fontColor=#000000;movable=1;resizable=1;rotatable=1;deletable=1;editable=1;locked=0;connectable=1;" vertex="1" parent="dPL0EmKUZ4wkKmuTThZB-43">
          <mxGeometry x="196.71000000000004" y="228" width="60" height="30" as="geometry" />
        </mxCell>
        <mxCell id="dPL0EmKUZ4wkKmuTThZB-50" value="Transform" style="text;strokeColor=none;align=center;fillColor=none;html=1;verticalAlign=middle;whiteSpace=wrap;rounded=0;fontSize=18;fontFamily=Architects Daughter;fontColor=#000000;movable=1;resizable=1;rotatable=1;deletable=1;editable=1;locked=0;connectable=1;" vertex="1" parent="dPL0EmKUZ4wkKmuTThZB-43">
          <mxGeometry x="196.71000000000004" y="200" width="60" height="30" as="geometry" />
        </mxCell>
        <mxCell id="dPL0EmKUZ4wkKmuTThZB-51" value="Describe" style="text;strokeColor=none;align=center;fillColor=none;html=1;verticalAlign=middle;whiteSpace=wrap;rounded=0;fontSize=18;fontFamily=Architects Daughter;fontColor=#000000;movable=1;resizable=1;rotatable=1;deletable=1;editable=1;locked=0;connectable=1;" vertex="1" parent="dPL0EmKUZ4wkKmuTThZB-43">
          <mxGeometry x="196.71000000000004" y="148" width="60" height="30" as="geometry" />
        </mxCell>
        <mxCell id="dPL0EmKUZ4wkKmuTThZB-52" value="Analyze" style="text;strokeColor=none;align=center;fillColor=none;html=1;verticalAlign=middle;whiteSpace=wrap;rounded=0;fontSize=18;fontFamily=Architects Daughter;fontColor=#000000;movable=1;resizable=1;rotatable=1;deletable=1;editable=1;locked=0;connectable=1;" vertex="1" parent="dPL0EmKUZ4wkKmuTThZB-43">
          <mxGeometry x="196.71000000000004" y="120" width="60" height="30" as="geometry" />
        </mxCell>
        <mxCell id="dPL0EmKUZ4wkKmuTThZB-53" value="Evaluate" style="text;strokeColor=none;align=center;fillColor=none;html=1;verticalAlign=middle;whiteSpace=wrap;rounded=0;fontSize=18;fontFamily=Architects Daughter;fontColor=#000000;movable=1;resizable=1;rotatable=1;deletable=1;editable=1;locked=0;connectable=1;" vertex="1" parent="dPL0EmKUZ4wkKmuTThZB-43">
          <mxGeometry x="196.71000000000004" y="72" width="60" height="30" as="geometry" />
        </mxCell>
        <mxCell id="dPL0EmKUZ4wkKmuTThZB-54" value="&lt;font style=&quot;font-size: 18px;&quot;&gt;Connect&lt;/font&gt;" style="text;strokeColor=none;align=center;fillColor=none;html=1;verticalAlign=middle;whiteSpace=wrap;rounded=0;fontSize=20;fontFamily=Architects Daughter;fontColor=#000000;movable=1;resizable=1;rotatable=1;deletable=1;editable=1;locked=0;connectable=1;" vertex="1" parent="dPL0EmKUZ4wkKmuTThZB-43">
          <mxGeometry x="196.71000000000004" y="44" width="60" height="30" as="geometry" />
        </mxCell>
        <mxCell id="dPL0EmKUZ4wkKmuTThZB-55" value="Sample" style="text;strokeColor=none;align=center;fillColor=none;html=1;verticalAlign=middle;whiteSpace=wrap;rounded=0;fontSize=18;fontFamily=Architects Daughter;fontColor=#000000;movable=1;resizable=1;rotatable=1;deletable=1;editable=1;locked=0;connectable=1;" vertex="1" parent="dPL0EmKUZ4wkKmuTThZB-42">
          <mxGeometry x="339.71000000000004" y="362" width="60" height="30" as="geometry" />
        </mxCell>
        <mxCell id="dPL0EmKUZ4wkKmuTThZB-56" value="Data" style="text;strokeColor=none;align=center;fillColor=none;html=1;verticalAlign=middle;whiteSpace=wrap;rounded=0;fontSize=36;fontFamily=Architects Daughter;fontColor=#000000;movable=1;resizable=1;rotatable=1;deletable=1;editable=1;locked=0;connectable=1;" vertex="1" parent="dPL0EmKUZ4wkKmuTThZB-42">
          <mxGeometry y="373" width="60" height="30" as="geometry" />
        </mxCell>
        <mxCell id="dPL0EmKUZ4wkKmuTThZB-57" value="Information" style="text;strokeColor=none;align=center;fillColor=none;html=1;verticalAlign=middle;whiteSpace=wrap;rounded=0;fontSize=36;fontFamily=Architects Daughter;fontColor=#000000;movable=1;resizable=1;rotatable=1;deletable=1;editable=1;locked=0;connectable=1;" vertex="1" parent="dPL0EmKUZ4wkKmuTThZB-42">
          <mxGeometry x="57" y="294" width="60" height="30" as="geometry" />
        </mxCell>
        <mxCell id="dPL0EmKUZ4wkKmuTThZB-58" value="Knowledge" style="text;strokeColor=none;align=center;fillColor=none;html=1;verticalAlign=middle;whiteSpace=wrap;rounded=0;fontSize=36;fontFamily=Architects Daughter;fontColor=#000000;movable=1;resizable=1;rotatable=1;deletable=1;editable=1;locked=0;connectable=1;" vertex="1" parent="dPL0EmKUZ4wkKmuTThZB-42">
          <mxGeometry x="47" y="215" width="60" height="30" as="geometry" />
        </mxCell>
        <mxCell id="dPL0EmKUZ4wkKmuTThZB-59" value="Insight" style="text;strokeColor=none;align=center;fillColor=none;html=1;verticalAlign=middle;whiteSpace=wrap;rounded=0;fontSize=36;fontFamily=Architects Daughter;fontColor=#000000;movable=1;resizable=1;rotatable=1;deletable=1;editable=1;locked=0;connectable=1;" vertex="1" parent="dPL0EmKUZ4wkKmuTThZB-42">
          <mxGeometry x="13" y="134" width="60" height="30" as="geometry" />
        </mxCell>
        <mxCell id="dPL0EmKUZ4wkKmuTThZB-61" value="Data to Insight Hierarchy (DIKI)" style="text;strokeColor=none;align=center;fillColor=none;html=1;verticalAlign=middle;whiteSpace=wrap;rounded=0;fontSize=40;fontFamily=Architects Daughter;fontColor=#000000;movable=1;resizable=1;rotatable=1;deletable=1;editable=1;locked=0;connectable=1;" vertex="1" parent="dPL0EmKUZ4wkKmuTThZB-42">
          <mxGeometry x="74.71000000000001" width="590" height="70" as="geometry" />
        </mxCell>
        <mxCell id="dPL0EmKUZ4wkKmuTThZB-1" value="" style="group;movable=1;resizable=1;rotatable=1;deletable=1;editable=1;locked=0;connectable=1;strokeColor=none;" connectable="0" vertex="1" parent="1">
          <mxGeometry x="78" y="590" width="690" height="430" as="geometry" />
        </mxCell>
        <mxCell id="mKcArdGAaagijM24Qmw--5" value="" style="group;rounded=0;fillColor=none;strokeColor=none;fontSize=10;movable=1;resizable=1;rotatable=1;deletable=1;editable=1;locked=0;connectable=1;" connectable="0" vertex="1" parent="dPL0EmKUZ4wkKmuTThZB-1">
          <mxGeometry x="143" y="80" width="492" height="350" as="geometry" />
        </mxCell>
        <mxCell id="mKcArdGAaagijM24Qmw--1" value="" style="triangle;direction=north;strokeWidth=1;html=1;fillColor=#666666;strokeColor=#000000;shadow=0;fontSize=10;fontColor=#FFFFFF;align=center;fontStyle=0;whiteSpace=wrap;spacing=10;hachureGap=4;fontFamily=Architects Daughter;fontSource=https%3A%2F%2Ffonts.googleapis.com%2Fcss%3Ffamily%3DArchitects%2BDaughter;fillStyle=solid;sketch=1;curveFitting=1;jiggle=2;movable=1;resizable=1;rotatable=1;deletable=1;editable=1;locked=0;connectable=1;" vertex="1" parent="mKcArdGAaagijM24Qmw--5">
          <mxGeometry x="-1" width="450.00000000000006" height="350" as="geometry" />
        </mxCell>
        <mxCell id="mKcArdGAaagijM24Qmw--2" value="" style="triangle;direction=north;strokeWidth=1;html=1;fillColor=#808080;strokeColor=#000000;shadow=0;fontSize=10;fontColor=#FFFFFF;align=center;fontStyle=0;whiteSpace=wrap;spacing=10;sketch=1;hachureGap=4;jiggle=2;curveFitting=1;fontFamily=Architects Daughter;fontSource=https%3A%2F%2Ffonts.googleapis.com%2Fcss%3Ffamily%3DArchitects%2BDaughter;fillStyle=solid;movable=1;resizable=1;rotatable=1;deletable=1;editable=1;locked=0;connectable=1;" vertex="1" parent="mKcArdGAaagijM24Qmw--5">
          <mxGeometry x="52.290000000000006" width="347.14" height="270" as="geometry" />
        </mxCell>
        <mxCell id="mKcArdGAaagijM24Qmw--3" value="" style="triangle;direction=north;strokeWidth=1;html=1;fillColor=#B3B3B3;strokeColor=#000000;shadow=0;fontSize=10;fontColor=#FFFFFF;align=center;fontStyle=0;whiteSpace=wrap;spacing=10;sketch=1;hachureGap=4;jiggle=2;curveFitting=1;fontFamily=Architects Daughter;fontSource=https%3A%2F%2Ffonts.googleapis.com%2Fcss%3Ffamily%3DArchitects%2BDaughter;fillStyle=solid;movable=1;resizable=1;rotatable=1;deletable=1;editable=1;locked=0;connectable=1;" vertex="1" parent="mKcArdGAaagijM24Qmw--5">
          <mxGeometry x="103.57" width="244.28" height="190" as="geometry" />
        </mxCell>
        <mxCell id="mKcArdGAaagijM24Qmw--6" value="" style="triangle;direction=north;strokeWidth=1;html=1;fillColor=#E6E6E6;strokeColor=#000000;shadow=0;fontSize=10;fontColor=#FFFFFF;align=center;fontStyle=0;whiteSpace=wrap;spacing=10;sketch=1;hachureGap=4;jiggle=2;curveFitting=1;fontFamily=Architects Daughter;fontSource=https%3A%2F%2Ffonts.googleapis.com%2Fcss%3Ffamily%3DArchitects%2BDaughter;fillStyle=solid;movable=1;resizable=1;rotatable=1;deletable=1;editable=1;locked=0;connectable=1;" vertex="1" parent="mKcArdGAaagijM24Qmw--5">
          <mxGeometry x="156" width="141.42" height="110" as="geometry" />
        </mxCell>
        <mxCell id="mKcArdGAaagijM24Qmw--7" value="Identify" style="text;strokeColor=none;align=center;fillColor=none;html=1;verticalAlign=middle;whiteSpace=wrap;rounded=0;fontSize=18;fontFamily=Architects Daughter;fontColor=#000000;movable=1;resizable=1;rotatable=1;deletable=1;editable=1;locked=0;connectable=1;" vertex="1" parent="mKcArdGAaagijM24Qmw--5">
          <mxGeometry x="196.71000000000004" y="310" width="60" height="30" as="geometry" />
        </mxCell>
        <mxCell id="mKcArdGAaagijM24Qmw--10" value="Organize" style="text;strokeColor=none;align=center;fillColor=none;html=1;verticalAlign=middle;whiteSpace=wrap;rounded=0;fontSize=18;fontFamily=Architects Daughter;fontColor=#000000;movable=1;resizable=1;rotatable=1;deletable=1;editable=1;locked=0;connectable=1;" vertex="1" parent="mKcArdGAaagijM24Qmw--5">
          <mxGeometry x="196.71000000000004" y="228" width="60" height="30" as="geometry" />
        </mxCell>
        <mxCell id="mKcArdGAaagijM24Qmw--11" value="Transform" style="text;strokeColor=none;align=center;fillColor=none;html=1;verticalAlign=middle;whiteSpace=wrap;rounded=0;fontSize=18;fontFamily=Architects Daughter;fontColor=#000000;movable=1;resizable=1;rotatable=1;deletable=1;editable=1;locked=0;connectable=1;" vertex="1" parent="mKcArdGAaagijM24Qmw--5">
          <mxGeometry x="196.71000000000004" y="200" width="60" height="30" as="geometry" />
        </mxCell>
        <mxCell id="mKcArdGAaagijM24Qmw--12" value="Describe" style="text;strokeColor=none;align=center;fillColor=none;html=1;verticalAlign=middle;whiteSpace=wrap;rounded=0;fontSize=18;fontFamily=Architects Daughter;fontColor=#000000;movable=1;resizable=1;rotatable=1;deletable=1;editable=1;locked=0;connectable=1;" vertex="1" parent="mKcArdGAaagijM24Qmw--5">
          <mxGeometry x="196.71000000000004" y="148" width="60" height="30" as="geometry" />
        </mxCell>
        <mxCell id="mKcArdGAaagijM24Qmw--13" value="Analyze" style="text;strokeColor=none;align=center;fillColor=none;html=1;verticalAlign=middle;whiteSpace=wrap;rounded=0;fontSize=18;fontFamily=Architects Daughter;fontColor=#000000;movable=1;resizable=1;rotatable=1;deletable=1;editable=1;locked=0;connectable=1;" vertex="1" parent="mKcArdGAaagijM24Qmw--5">
          <mxGeometry x="196.71000000000004" y="120" width="60" height="30" as="geometry" />
        </mxCell>
        <mxCell id="mKcArdGAaagijM24Qmw--14" value="Evaluate" style="text;strokeColor=none;align=center;fillColor=none;html=1;verticalAlign=middle;whiteSpace=wrap;rounded=0;fontSize=18;fontFamily=Architects Daughter;fontColor=#000000;movable=1;resizable=1;rotatable=1;deletable=1;editable=1;locked=0;connectable=1;" vertex="1" parent="mKcArdGAaagijM24Qmw--5">
          <mxGeometry x="196.71000000000004" y="73" width="60" height="30" as="geometry" />
        </mxCell>
        <mxCell id="mKcArdGAaagijM24Qmw--15" value="&lt;font style=&quot;font-size: 18px;&quot;&gt;Connect&lt;/font&gt;" style="text;strokeColor=none;align=center;fillColor=none;html=1;verticalAlign=middle;whiteSpace=wrap;rounded=0;fontSize=20;fontFamily=Architects Daughter;fontColor=#000000;movable=1;resizable=1;rotatable=1;deletable=1;editable=1;locked=0;connectable=1;" vertex="1" parent="mKcArdGAaagijM24Qmw--5">
          <mxGeometry x="196.71000000000004" y="45" width="60" height="30" as="geometry" />
        </mxCell>
        <mxCell id="dPL0EmKUZ4wkKmuTThZB-98" value="" style="shape=curlyBracket;whiteSpace=wrap;html=1;rounded=1;flipH=1;labelPosition=right;verticalLabelPosition=middle;align=left;verticalAlign=middle;sketch=1;hachureGap=4;jiggle=2;curveFitting=1;fontFamily=Architects Daughter;fontSource=https%3A%2F%2Ffonts.googleapis.com%2Fcss%3Ffamily%3DArchitects%2BDaughter;fontSize=20;strokeColor=#000000;strokeWidth=2;rotation=-30;" vertex="1" parent="mKcArdGAaagijM24Qmw--5">
          <mxGeometry x="357" y="102.5" width="10.83" height="65" as="geometry" />
        </mxCell>
        <mxCell id="dPL0EmKUZ4wkKmuTThZB-99" value="" style="group;rotation=333;" connectable="0" vertex="1" parent="mKcArdGAaagijM24Qmw--5">
          <mxGeometry x="427" y="190" width="65" height="145" as="geometry" />
        </mxCell>
        <mxCell id="dPL0EmKUZ4wkKmuTThZB-62" value="" style="shape=curlyBracket;whiteSpace=wrap;html=1;rounded=1;flipH=1;labelPosition=right;verticalLabelPosition=middle;align=left;verticalAlign=middle;sketch=1;hachureGap=4;jiggle=2;curveFitting=1;fontFamily=Architects Daughter;fontSource=https%3A%2F%2Ffonts.googleapis.com%2Fcss%3Ffamily%3DArchitects%2BDaughter;fontSize=20;strokeColor=#000000;strokeWidth=2;rotation=331;" vertex="1" parent="dPL0EmKUZ4wkKmuTThZB-99">
          <mxGeometry x="2" y="-1" width="20" height="145" as="geometry" />
        </mxCell>
        <mxCell id="dPL0EmKUZ4wkKmuTThZB-96" value="Understanding Data" style="text;strokeColor=none;align=center;fillColor=none;html=1;verticalAlign=middle;whiteSpace=wrap;rounded=0;fontSize=18;fontFamily=Architects Daughter;fontColor=#000000;movable=1;resizable=1;rotatable=1;deletable=1;editable=1;locked=0;connectable=1;rotation=60;" vertex="1" parent="dPL0EmKUZ4wkKmuTThZB-99">
          <mxGeometry x="15" y="42.37499999999999" width="60" height="36.25" as="geometry" />
        </mxCell>
        <mxCell id="dPL0EmKUZ4wkKmuTThZB-100" value="" style="group;rotation=60;" connectable="0" vertex="1" parent="mKcArdGAaagijM24Qmw--5">
          <mxGeometry x="347.85" y="78" width="65" height="72" as="geometry" />
        </mxCell>
        <mxCell id="dPL0EmKUZ4wkKmuTThZB-97" value="Approaching Analysis" style="text;strokeColor=none;align=center;fillColor=none;html=1;verticalAlign=middle;whiteSpace=wrap;rounded=0;fontSize=18;fontFamily=Architects Daughter;fontColor=#000000;movable=1;resizable=1;rotatable=1;deletable=1;editable=1;locked=0;connectable=1;rotation=60;" vertex="1" parent="dPL0EmKUZ4wkKmuTThZB-100">
          <mxGeometry x="16" y="33" width="60" height="30" as="geometry" />
        </mxCell>
        <mxCell id="dPL0EmKUZ4wkKmuTThZB-101" value="" style="group;rotation=-210;" connectable="0" vertex="1" parent="mKcArdGAaagijM24Qmw--5">
          <mxGeometry x="315" y="-19" width="65" height="72" as="geometry" />
        </mxCell>
        <mxCell id="dPL0EmKUZ4wkKmuTThZB-102" value="Framing Research" style="text;strokeColor=none;align=center;fillColor=none;html=1;verticalAlign=middle;whiteSpace=wrap;rounded=0;fontSize=18;fontFamily=Architects Daughter;fontColor=#000000;movable=1;resizable=1;rotatable=1;deletable=1;editable=1;locked=0;connectable=1;rotation=-300;" vertex="1" parent="dPL0EmKUZ4wkKmuTThZB-101">
          <mxGeometry x="-10" y="35" width="60" height="30" as="geometry" />
        </mxCell>
        <mxCell id="dPL0EmKUZ4wkKmuTThZB-103" value="" style="shape=curlyBracket;whiteSpace=wrap;html=1;rounded=1;flipH=0;labelPosition=right;verticalLabelPosition=middle;align=left;verticalAlign=middle;sketch=1;hachureGap=4;jiggle=2;curveFitting=1;fontFamily=Architects Daughter;fontSource=https%3A%2F%2Ffonts.googleapis.com%2Fcss%3Ffamily%3DArchitects%2BDaughter;fontSize=20;strokeColor=#000000;strokeWidth=2;rotation=-210;" vertex="1" parent="mKcArdGAaagijM24Qmw--5">
          <mxGeometry x="299" y="13" width="10.83" height="65" as="geometry" />
        </mxCell>
        <mxCell id="mKcArdGAaagijM24Qmw--8" value="Sample" style="text;strokeColor=none;align=center;fillColor=none;html=1;verticalAlign=middle;whiteSpace=wrap;rounded=0;fontSize=18;fontFamily=Architects Daughter;fontColor=#000000;movable=1;resizable=1;rotatable=1;deletable=1;editable=1;locked=0;connectable=1;" vertex="1" parent="dPL0EmKUZ4wkKmuTThZB-1">
          <mxGeometry x="339.71000000000004" y="362" width="60" height="30" as="geometry" />
        </mxCell>
        <mxCell id="mKcArdGAaagijM24Qmw--16" value="Data" style="text;strokeColor=none;align=center;fillColor=none;html=1;verticalAlign=middle;whiteSpace=wrap;rounded=0;fontSize=36;fontFamily=Architects Daughter;fontColor=#000000;movable=1;resizable=1;rotatable=1;deletable=1;editable=1;locked=0;connectable=1;" vertex="1" parent="dPL0EmKUZ4wkKmuTThZB-1">
          <mxGeometry y="373" width="60" height="30" as="geometry" />
        </mxCell>
        <mxCell id="mKcArdGAaagijM24Qmw--17" value="Information" style="text;strokeColor=none;align=center;fillColor=none;html=1;verticalAlign=middle;whiteSpace=wrap;rounded=0;fontSize=36;fontFamily=Architects Daughter;fontColor=#000000;movable=1;resizable=1;rotatable=1;deletable=1;editable=1;locked=0;connectable=1;" vertex="1" parent="dPL0EmKUZ4wkKmuTThZB-1">
          <mxGeometry x="57" y="294" width="60" height="30" as="geometry" />
        </mxCell>
        <mxCell id="mKcArdGAaagijM24Qmw--18" value="Knowledge" style="text;strokeColor=none;align=center;fillColor=none;html=1;verticalAlign=middle;whiteSpace=wrap;rounded=0;fontSize=36;fontFamily=Architects Daughter;fontColor=#000000;movable=1;resizable=1;rotatable=1;deletable=1;editable=1;locked=0;connectable=1;" vertex="1" parent="dPL0EmKUZ4wkKmuTThZB-1">
          <mxGeometry x="47" y="215" width="60" height="30" as="geometry" />
        </mxCell>
        <mxCell id="mKcArdGAaagijM24Qmw--19" value="Insight" style="text;strokeColor=none;align=center;fillColor=none;html=1;verticalAlign=middle;whiteSpace=wrap;rounded=0;fontSize=36;fontFamily=Architects Daughter;fontColor=#000000;movable=1;resizable=1;rotatable=1;deletable=1;editable=1;locked=0;connectable=1;" vertex="1" parent="dPL0EmKUZ4wkKmuTThZB-1">
          <mxGeometry x="13" y="134" width="60" height="30" as="geometry" />
        </mxCell>
        <mxCell id="mKcArdGAaagijM24Qmw--22" value="Data to Insight Hierarchy (DIKI)" style="text;strokeColor=none;align=center;fillColor=none;html=1;verticalAlign=middle;whiteSpace=wrap;rounded=0;fontSize=40;fontFamily=Architects Daughter;fontColor=#000000;movable=1;resizable=1;rotatable=1;deletable=1;editable=1;locked=0;connectable=1;" vertex="1" parent="dPL0EmKUZ4wkKmuTThZB-1">
          <mxGeometry x="74.71000000000001" width="590" height="70" as="geometry" />
        </mxCell>
        <mxCell id="ZMOx0ddDp4uJkPlQw3RR-1" value="" style="group;movable=1;resizable=1;rotatable=1;deletable=1;editable=1;locked=0;connectable=1;strokeColor=none;" connectable="0" vertex="1" parent="1">
          <mxGeometry x="759" y="590" width="690" height="430" as="geometry" />
        </mxCell>
        <mxCell id="ZMOx0ddDp4uJkPlQw3RR-2" value="" style="group;rounded=0;fillColor=none;strokeColor=none;fontSize=10;movable=1;resizable=1;rotatable=1;deletable=1;editable=1;locked=0;connectable=1;" connectable="0" vertex="1" parent="ZMOx0ddDp4uJkPlQw3RR-1">
          <mxGeometry x="143" y="80" width="492" height="350" as="geometry" />
        </mxCell>
        <mxCell id="ZMOx0ddDp4uJkPlQw3RR-3" value="" style="triangle;direction=north;strokeWidth=1;html=1;fillColor=#666666;strokeColor=#000000;shadow=0;fontSize=10;fontColor=#FFFFFF;align=center;fontStyle=0;whiteSpace=wrap;spacing=10;hachureGap=4;fontFamily=Architects Daughter;fontSource=https%3A%2F%2Ffonts.googleapis.com%2Fcss%3Ffamily%3DArchitects%2BDaughter;fillStyle=solid;sketch=1;curveFitting=1;jiggle=2;movable=1;resizable=1;rotatable=1;deletable=1;editable=1;locked=0;connectable=1;" vertex="1" parent="ZMOx0ddDp4uJkPlQw3RR-2">
          <mxGeometry x="-1" width="450.00000000000006" height="350" as="geometry" />
        </mxCell>
        <mxCell id="ZMOx0ddDp4uJkPlQw3RR-4" value="" style="triangle;direction=north;strokeWidth=1;html=1;fillColor=#808080;strokeColor=#000000;shadow=0;fontSize=10;fontColor=#FFFFFF;align=center;fontStyle=0;whiteSpace=wrap;spacing=10;sketch=1;hachureGap=4;jiggle=2;curveFitting=1;fontFamily=Architects Daughter;fontSource=https%3A%2F%2Ffonts.googleapis.com%2Fcss%3Ffamily%3DArchitects%2BDaughter;fillStyle=solid;movable=1;resizable=1;rotatable=1;deletable=1;editable=1;locked=0;connectable=1;" vertex="1" parent="ZMOx0ddDp4uJkPlQw3RR-2">
          <mxGeometry x="52.290000000000006" width="347.14" height="270" as="geometry" />
        </mxCell>
        <mxCell id="ZMOx0ddDp4uJkPlQw3RR-5" value="" style="triangle;direction=north;strokeWidth=1;html=1;fillColor=#B3B3B3;strokeColor=#000000;shadow=0;fontSize=10;fontColor=#FFFFFF;align=center;fontStyle=0;whiteSpace=wrap;spacing=10;sketch=1;hachureGap=4;jiggle=2;curveFitting=1;fontFamily=Architects Daughter;fontSource=https%3A%2F%2Ffonts.googleapis.com%2Fcss%3Ffamily%3DArchitects%2BDaughter;fillStyle=solid;movable=1;resizable=1;rotatable=1;deletable=1;editable=1;locked=0;connectable=1;" vertex="1" parent="ZMOx0ddDp4uJkPlQw3RR-2">
          <mxGeometry x="103.57" width="244.28" height="190" as="geometry" />
        </mxCell>
        <mxCell id="ZMOx0ddDp4uJkPlQw3RR-6" value="" style="triangle;direction=north;strokeWidth=1;html=1;fillColor=#E6E6E6;strokeColor=#000000;shadow=0;fontSize=10;fontColor=#FFFFFF;align=center;fontStyle=0;whiteSpace=wrap;spacing=10;sketch=1;hachureGap=4;jiggle=2;curveFitting=1;fontFamily=Architects Daughter;fontSource=https%3A%2F%2Ffonts.googleapis.com%2Fcss%3Ffamily%3DArchitects%2BDaughter;fillStyle=solid;movable=1;resizable=1;rotatable=1;deletable=1;editable=1;locked=0;connectable=1;" vertex="1" parent="ZMOx0ddDp4uJkPlQw3RR-2">
          <mxGeometry x="156" width="141.42" height="110" as="geometry" />
        </mxCell>
        <mxCell id="ZMOx0ddDp4uJkPlQw3RR-7" value="Identify" style="text;strokeColor=none;align=center;fillColor=none;html=1;verticalAlign=middle;whiteSpace=wrap;rounded=0;fontSize=18;fontFamily=Architects Daughter;fontColor=#000000;movable=1;resizable=1;rotatable=1;deletable=1;editable=1;locked=0;connectable=1;" vertex="1" parent="ZMOx0ddDp4uJkPlQw3RR-2">
          <mxGeometry x="196.71000000000004" y="310" width="60" height="30" as="geometry" />
        </mxCell>
        <mxCell id="ZMOx0ddDp4uJkPlQw3RR-8" value="Organize" style="text;strokeColor=none;align=center;fillColor=none;html=1;verticalAlign=middle;whiteSpace=wrap;rounded=0;fontSize=18;fontFamily=Architects Daughter;fontColor=#000000;movable=1;resizable=1;rotatable=1;deletable=1;editable=1;locked=0;connectable=1;" vertex="1" parent="ZMOx0ddDp4uJkPlQw3RR-2">
          <mxGeometry x="196.71000000000004" y="228" width="60" height="30" as="geometry" />
        </mxCell>
        <mxCell id="ZMOx0ddDp4uJkPlQw3RR-9" value="Transform" style="text;strokeColor=none;align=center;fillColor=none;html=1;verticalAlign=middle;whiteSpace=wrap;rounded=0;fontSize=18;fontFamily=Architects Daughter;fontColor=#000000;movable=1;resizable=1;rotatable=1;deletable=1;editable=1;locked=0;connectable=1;" vertex="1" parent="ZMOx0ddDp4uJkPlQw3RR-2">
          <mxGeometry x="196.71000000000004" y="200" width="60" height="30" as="geometry" />
        </mxCell>
        <mxCell id="ZMOx0ddDp4uJkPlQw3RR-10" value="Describe" style="text;strokeColor=none;align=center;fillColor=none;html=1;verticalAlign=middle;whiteSpace=wrap;rounded=0;fontSize=18;fontFamily=Architects Daughter;fontColor=#000000;movable=1;resizable=1;rotatable=1;deletable=1;editable=1;locked=0;connectable=1;" vertex="1" parent="ZMOx0ddDp4uJkPlQw3RR-2">
          <mxGeometry x="196.71000000000004" y="148" width="60" height="30" as="geometry" />
        </mxCell>
        <mxCell id="ZMOx0ddDp4uJkPlQw3RR-11" value="Analyze" style="text;strokeColor=none;align=center;fillColor=none;html=1;verticalAlign=middle;whiteSpace=wrap;rounded=0;fontSize=18;fontFamily=Architects Daughter;fontColor=#000000;movable=1;resizable=1;rotatable=1;deletable=1;editable=1;locked=0;connectable=1;" vertex="1" parent="ZMOx0ddDp4uJkPlQw3RR-2">
          <mxGeometry x="196.71000000000004" y="120" width="60" height="30" as="geometry" />
        </mxCell>
        <mxCell id="ZMOx0ddDp4uJkPlQw3RR-12" value="Evaluate" style="text;strokeColor=none;align=center;fillColor=none;html=1;verticalAlign=middle;whiteSpace=wrap;rounded=0;fontSize=18;fontFamily=Architects Daughter;fontColor=#000000;movable=1;resizable=1;rotatable=1;deletable=1;editable=1;locked=0;connectable=1;" vertex="1" parent="ZMOx0ddDp4uJkPlQw3RR-2">
          <mxGeometry x="196.71000000000004" y="73" width="60" height="30" as="geometry" />
        </mxCell>
        <mxCell id="ZMOx0ddDp4uJkPlQw3RR-13" value="&lt;font style=&quot;font-size: 18px;&quot;&gt;Connect&lt;/font&gt;" style="text;strokeColor=none;align=center;fillColor=none;html=1;verticalAlign=middle;whiteSpace=wrap;rounded=0;fontSize=20;fontFamily=Architects Daughter;fontColor=#000000;movable=1;resizable=1;rotatable=1;deletable=1;editable=1;locked=0;connectable=1;" vertex="1" parent="ZMOx0ddDp4uJkPlQw3RR-2">
          <mxGeometry x="196.71000000000004" y="45" width="60" height="30" as="geometry" />
        </mxCell>
        <mxCell id="ZMOx0ddDp4uJkPlQw3RR-14" value="" style="shape=curlyBracket;whiteSpace=wrap;html=1;rounded=1;flipH=1;labelPosition=right;verticalLabelPosition=middle;align=left;verticalAlign=middle;sketch=1;hachureGap=4;jiggle=2;curveFitting=1;fontFamily=Architects Daughter;fontSource=https%3A%2F%2Ffonts.googleapis.com%2Fcss%3Ffamily%3DArchitects%2BDaughter;fontSize=20;strokeColor=#000000;strokeWidth=2;rotation=-30;" vertex="1" parent="ZMOx0ddDp4uJkPlQw3RR-2">
          <mxGeometry x="357" y="102.5" width="10.83" height="65" as="geometry" />
        </mxCell>
        <mxCell id="ZMOx0ddDp4uJkPlQw3RR-15" value="" style="group;rotation=333;" connectable="0" vertex="1" parent="ZMOx0ddDp4uJkPlQw3RR-2">
          <mxGeometry x="427" y="190" width="65" height="145" as="geometry" />
        </mxCell>
        <mxCell id="ZMOx0ddDp4uJkPlQw3RR-16" value="" style="shape=curlyBracket;whiteSpace=wrap;html=1;rounded=1;flipH=1;labelPosition=right;verticalLabelPosition=middle;align=left;verticalAlign=middle;sketch=1;hachureGap=4;jiggle=2;curveFitting=1;fontFamily=Architects Daughter;fontSource=https%3A%2F%2Ffonts.googleapis.com%2Fcss%3Ffamily%3DArchitects%2BDaughter;fontSize=20;strokeColor=#000000;strokeWidth=2;rotation=331;" vertex="1" parent="ZMOx0ddDp4uJkPlQw3RR-15">
          <mxGeometry x="2" y="-1" width="20" height="145" as="geometry" />
        </mxCell>
        <mxCell id="ZMOx0ddDp4uJkPlQw3RR-17" value="Understanding Data" style="text;strokeColor=none;align=center;fillColor=none;html=1;verticalAlign=middle;whiteSpace=wrap;rounded=0;fontSize=18;fontFamily=Architects Daughter;fontColor=#000000;movable=1;resizable=1;rotatable=1;deletable=1;editable=1;locked=0;connectable=1;rotation=60;" vertex="1" parent="ZMOx0ddDp4uJkPlQw3RR-15">
          <mxGeometry x="15" y="42.37499999999999" width="60" height="36.25" as="geometry" />
        </mxCell>
        <mxCell id="ZMOx0ddDp4uJkPlQw3RR-18" value="" style="group;rotation=60;" connectable="0" vertex="1" parent="ZMOx0ddDp4uJkPlQw3RR-2">
          <mxGeometry x="347.85" y="78" width="65" height="72" as="geometry" />
        </mxCell>
        <mxCell id="ZMOx0ddDp4uJkPlQw3RR-19" value="Approaching Analysis" style="text;strokeColor=none;align=center;fillColor=none;html=1;verticalAlign=middle;whiteSpace=wrap;rounded=0;fontSize=18;fontFamily=Architects Daughter;fontColor=#000000;movable=1;resizable=1;rotatable=1;deletable=1;editable=1;locked=0;connectable=1;rotation=60;" vertex="1" parent="ZMOx0ddDp4uJkPlQw3RR-18">
          <mxGeometry x="16" y="33" width="60" height="30" as="geometry" />
        </mxCell>
        <mxCell id="ZMOx0ddDp4uJkPlQw3RR-20" value="" style="group;rotation=-210;" connectable="0" vertex="1" parent="ZMOx0ddDp4uJkPlQw3RR-2">
          <mxGeometry x="315" y="-19" width="65" height="72" as="geometry" />
        </mxCell>
        <mxCell id="ZMOx0ddDp4uJkPlQw3RR-21" value="Framing Research" style="text;strokeColor=none;align=center;fillColor=none;html=1;verticalAlign=middle;whiteSpace=wrap;rounded=0;fontSize=18;fontFamily=Architects Daughter;fontColor=#000000;movable=1;resizable=1;rotatable=1;deletable=1;editable=1;locked=0;connectable=1;rotation=-300;" vertex="1" parent="ZMOx0ddDp4uJkPlQw3RR-20">
          <mxGeometry x="-10" y="35" width="60" height="30" as="geometry" />
        </mxCell>
        <mxCell id="ZMOx0ddDp4uJkPlQw3RR-22" value="" style="shape=curlyBracket;whiteSpace=wrap;html=1;rounded=1;flipH=0;labelPosition=right;verticalLabelPosition=middle;align=left;verticalAlign=middle;sketch=1;hachureGap=4;jiggle=2;curveFitting=1;fontFamily=Architects Daughter;fontSource=https%3A%2F%2Ffonts.googleapis.com%2Fcss%3Ffamily%3DArchitects%2BDaughter;fontSize=20;strokeColor=#000000;strokeWidth=2;rotation=-210;" vertex="1" parent="ZMOx0ddDp4uJkPlQw3RR-2">
          <mxGeometry x="299" y="13" width="10.83" height="65" as="geometry" />
        </mxCell>
        <mxCell id="ZMOx0ddDp4uJkPlQw3RR-23" value="Sample" style="text;strokeColor=none;align=center;fillColor=none;html=1;verticalAlign=middle;whiteSpace=wrap;rounded=0;fontSize=18;fontFamily=Architects Daughter;fontColor=#000000;movable=1;resizable=1;rotatable=1;deletable=1;editable=1;locked=0;connectable=1;" vertex="1" parent="ZMOx0ddDp4uJkPlQw3RR-1">
          <mxGeometry x="339.71000000000004" y="362" width="60" height="30" as="geometry" />
        </mxCell>
        <mxCell id="ZMOx0ddDp4uJkPlQw3RR-24" value="Data" style="text;strokeColor=none;align=center;fillColor=none;html=1;verticalAlign=middle;whiteSpace=wrap;rounded=0;fontSize=36;fontFamily=Architects Daughter;fontColor=#000000;movable=1;resizable=1;rotatable=1;deletable=1;editable=1;locked=0;connectable=1;" vertex="1" parent="ZMOx0ddDp4uJkPlQw3RR-1">
          <mxGeometry y="373" width="60" height="30" as="geometry" />
        </mxCell>
        <mxCell id="ZMOx0ddDp4uJkPlQw3RR-25" value="Information" style="text;strokeColor=none;align=center;fillColor=none;html=1;verticalAlign=middle;whiteSpace=wrap;rounded=0;fontSize=36;fontFamily=Architects Daughter;fontColor=#000000;movable=1;resizable=1;rotatable=1;deletable=1;editable=1;locked=0;connectable=1;" vertex="1" parent="ZMOx0ddDp4uJkPlQw3RR-1">
          <mxGeometry x="57" y="294" width="60" height="30" as="geometry" />
        </mxCell>
        <mxCell id="ZMOx0ddDp4uJkPlQw3RR-26" value="Knowledge" style="text;strokeColor=none;align=center;fillColor=none;html=1;verticalAlign=middle;whiteSpace=wrap;rounded=0;fontSize=36;fontFamily=Architects Daughter;fontColor=#000000;movable=1;resizable=1;rotatable=1;deletable=1;editable=1;locked=0;connectable=1;" vertex="1" parent="ZMOx0ddDp4uJkPlQw3RR-1">
          <mxGeometry x="47" y="215" width="60" height="30" as="geometry" />
        </mxCell>
        <mxCell id="ZMOx0ddDp4uJkPlQw3RR-27" value="Insight" style="text;strokeColor=none;align=center;fillColor=none;html=1;verticalAlign=middle;whiteSpace=wrap;rounded=0;fontSize=36;fontFamily=Architects Daughter;fontColor=#000000;movable=1;resizable=1;rotatable=1;deletable=1;editable=1;locked=0;connectable=1;" vertex="1" parent="ZMOx0ddDp4uJkPlQw3RR-1">
          <mxGeometry x="13" y="134" width="60" height="30" as="geometry" />
        </mxCell>
        <mxCell id="ZMOx0ddDp4uJkPlQw3RR-28" value="Data to Insight Hierarchy (DIKI)" style="text;strokeColor=none;align=center;fillColor=none;html=1;verticalAlign=middle;whiteSpace=wrap;rounded=0;fontSize=40;fontFamily=Architects Daughter;fontColor=#000000;movable=1;resizable=1;rotatable=1;deletable=1;editable=1;locked=0;connectable=1;" vertex="1" parent="ZMOx0ddDp4uJkPlQw3RR-1">
          <mxGeometry x="74.71000000000001" width="590" height="70" as="geometry" />
        </mxCell>
        <mxCell id="2GdQweTvJQDbbkqz2x7P-1" value="" style="triangle;direction=north;strokeWidth=1;html=1;fillColor=#666666;strokeColor=#000000;shadow=0;fontSize=10;fontColor=#FFFFFF;align=center;fontStyle=0;whiteSpace=wrap;spacing=10;hachureGap=4;fontFamily=Architects Daughter;fontSource=https%3A%2F%2Ffonts.googleapis.com%2Fcss%3Ffamily%3DArchitects%2BDaughter;fillStyle=solid;sketch=1;curveFitting=1;jiggle=2;movable=1;resizable=1;rotatable=1;deletable=1;editable=1;locked=0;connectable=1;" vertex="1" parent="1">
          <mxGeometry x="886.71" y="149" width="450.00000000000006" height="350" as="geometry" />
        </mxCell>
        <mxCell id="2GdQweTvJQDbbkqz2x7P-2" value="" style="triangle;direction=north;strokeWidth=1;html=1;fillColor=#808080;strokeColor=#000000;shadow=0;fontSize=10;fontColor=#FFFFFF;align=center;fontStyle=0;whiteSpace=wrap;spacing=10;sketch=1;hachureGap=4;jiggle=2;curveFitting=1;fontFamily=Architects Daughter;fontSource=https%3A%2F%2Ffonts.googleapis.com%2Fcss%3Ffamily%3DArchitects%2BDaughter;fillStyle=solid;movable=1;resizable=1;rotatable=1;deletable=1;editable=1;locked=0;connectable=1;" vertex="1" parent="1">
          <mxGeometry x="940" y="149" width="347.14" height="270" as="geometry" />
        </mxCell>
        <mxCell id="2GdQweTvJQDbbkqz2x7P-3" value="" style="triangle;direction=north;strokeWidth=1;html=1;fillColor=#B3B3B3;strokeColor=#000000;shadow=0;fontSize=10;fontColor=#FFFFFF;align=center;fontStyle=0;whiteSpace=wrap;spacing=10;sketch=1;hachureGap=4;jiggle=2;curveFitting=1;fontFamily=Architects Daughter;fontSource=https%3A%2F%2Ffonts.googleapis.com%2Fcss%3Ffamily%3DArchitects%2BDaughter;fillStyle=solid;movable=1;resizable=1;rotatable=1;deletable=1;editable=1;locked=0;connectable=1;" vertex="1" parent="1">
          <mxGeometry x="991.28" y="149" width="244.28" height="190" as="geometry" />
        </mxCell>
        <mxCell id="2GdQweTvJQDbbkqz2x7P-4" value="" style="triangle;direction=north;strokeWidth=1;html=1;fillColor=#E6E6E6;strokeColor=#000000;shadow=0;fontSize=10;fontColor=#FFFFFF;align=center;fontStyle=0;whiteSpace=wrap;spacing=10;sketch=1;hachureGap=4;jiggle=2;curveFitting=1;fontFamily=Architects Daughter;fontSource=https%3A%2F%2Ffonts.googleapis.com%2Fcss%3Ffamily%3DArchitects%2BDaughter;fillStyle=solid;movable=1;resizable=1;rotatable=1;deletable=1;editable=1;locked=0;connectable=1;" vertex="1" parent="1">
          <mxGeometry x="1043.71" y="149" width="141.42" height="110" as="geometry" />
        </mxCell>
        <mxCell id="2GdQweTvJQDbbkqz2x7P-5" value="Identify" style="text;strokeColor=none;align=center;fillColor=none;html=1;verticalAlign=middle;whiteSpace=wrap;rounded=0;fontSize=18;fontFamily=Architects Daughter;fontColor=#000000;movable=1;resizable=1;rotatable=1;deletable=1;editable=1;locked=0;connectable=1;" vertex="1" parent="1">
          <mxGeometry x="1084.42" y="459" width="60" height="30" as="geometry" />
        </mxCell>
        <mxCell id="2GdQweTvJQDbbkqz2x7P-6" value="Organize" style="text;strokeColor=none;align=center;fillColor=none;html=1;verticalAlign=middle;whiteSpace=wrap;rounded=0;fontSize=18;fontFamily=Architects Daughter;fontColor=#000000;movable=1;resizable=1;rotatable=1;deletable=1;editable=1;locked=0;connectable=1;" vertex="1" parent="1">
          <mxGeometry x="1084.42" y="377" width="60" height="30" as="geometry" />
        </mxCell>
        <mxCell id="2GdQweTvJQDbbkqz2x7P-7" value="Transform" style="text;strokeColor=none;align=center;fillColor=none;html=1;verticalAlign=middle;whiteSpace=wrap;rounded=0;fontSize=18;fontFamily=Architects Daughter;fontColor=#000000;movable=1;resizable=1;rotatable=1;deletable=1;editable=1;locked=0;connectable=1;" vertex="1" parent="1">
          <mxGeometry x="1084.42" y="349" width="60" height="30" as="geometry" />
        </mxCell>
        <mxCell id="2GdQweTvJQDbbkqz2x7P-8" value="Describe" style="text;strokeColor=none;align=center;fillColor=none;html=1;verticalAlign=middle;whiteSpace=wrap;rounded=0;fontSize=18;fontFamily=Architects Daughter;fontColor=#000000;movable=1;resizable=1;rotatable=1;deletable=1;editable=1;locked=0;connectable=1;" vertex="1" parent="1">
          <mxGeometry x="1084.42" y="297" width="60" height="30" as="geometry" />
        </mxCell>
        <mxCell id="2GdQweTvJQDbbkqz2x7P-9" value="Analyze" style="text;strokeColor=none;align=center;fillColor=none;html=1;verticalAlign=middle;whiteSpace=wrap;rounded=0;fontSize=18;fontFamily=Architects Daughter;fontColor=#000000;movable=1;resizable=1;rotatable=1;deletable=1;editable=1;locked=0;connectable=1;" vertex="1" parent="1">
          <mxGeometry x="1084.42" y="269" width="60" height="30" as="geometry" />
        </mxCell>
        <mxCell id="2GdQweTvJQDbbkqz2x7P-10" value="Evaluate" style="text;strokeColor=none;align=center;fillColor=none;html=1;verticalAlign=middle;whiteSpace=wrap;rounded=0;fontSize=18;fontFamily=Architects Daughter;fontColor=#000000;movable=1;resizable=1;rotatable=1;deletable=1;editable=1;locked=0;connectable=1;" vertex="1" parent="1">
          <mxGeometry x="1084.42" y="221" width="60" height="30" as="geometry" />
        </mxCell>
        <mxCell id="2GdQweTvJQDbbkqz2x7P-11" value="&lt;font style=&quot;font-size: 18px;&quot;&gt;Connect&lt;/font&gt;" style="text;strokeColor=none;align=center;fillColor=none;html=1;verticalAlign=middle;whiteSpace=wrap;rounded=0;fontSize=20;fontFamily=Architects Daughter;fontColor=#000000;movable=1;resizable=1;rotatable=1;deletable=1;editable=1;locked=0;connectable=1;" vertex="1" parent="1">
          <mxGeometry x="1084.42" y="193" width="60" height="30" as="geometry" />
        </mxCell>
        <mxCell id="2GdQweTvJQDbbkqz2x7P-12" value="Sample" style="text;strokeColor=none;align=center;fillColor=none;html=1;verticalAlign=middle;whiteSpace=wrap;rounded=0;fontSize=18;fontFamily=Architects Daughter;fontColor=#000000;movable=1;resizable=1;rotatable=1;deletable=1;editable=1;locked=0;connectable=1;" vertex="1" parent="1">
          <mxGeometry x="1084.42" y="431" width="60" height="30" as="geometry" />
        </mxCell>
        <mxCell id="2GdQweTvJQDbbkqz2x7P-13" value="Data" style="text;strokeColor=none;align=center;fillColor=none;html=1;verticalAlign=middle;whiteSpace=wrap;rounded=0;fontSize=36;fontFamily=Architects Daughter;fontColor=#000000;movable=1;resizable=1;rotatable=1;deletable=1;editable=1;locked=0;connectable=1;" vertex="1" parent="1">
          <mxGeometry x="744.71" y="442" width="60" height="30" as="geometry" />
        </mxCell>
        <mxCell id="2GdQweTvJQDbbkqz2x7P-14" value="Information" style="text;strokeColor=none;align=center;fillColor=none;html=1;verticalAlign=middle;whiteSpace=wrap;rounded=0;fontSize=36;fontFamily=Architects Daughter;fontColor=#000000;movable=1;resizable=1;rotatable=1;deletable=1;editable=1;locked=0;connectable=1;" vertex="1" parent="1">
          <mxGeometry x="801.71" y="363" width="60" height="30" as="geometry" />
        </mxCell>
        <mxCell id="2GdQweTvJQDbbkqz2x7P-15" value="Knowledge" style="text;strokeColor=none;align=center;fillColor=none;html=1;verticalAlign=middle;whiteSpace=wrap;rounded=0;fontSize=36;fontFamily=Architects Daughter;fontColor=#000000;movable=1;resizable=1;rotatable=1;deletable=1;editable=1;locked=0;connectable=1;" vertex="1" parent="1">
          <mxGeometry x="791.71" y="284" width="60" height="30" as="geometry" />
        </mxCell>
        <mxCell id="2GdQweTvJQDbbkqz2x7P-16" value="Insight" style="text;strokeColor=none;align=center;fillColor=none;html=1;verticalAlign=middle;whiteSpace=wrap;rounded=0;fontSize=36;fontFamily=Architects Daughter;fontColor=#000000;movable=1;resizable=1;rotatable=1;deletable=1;editable=1;locked=0;connectable=1;" vertex="1" parent="1">
          <mxGeometry x="757.71" y="203" width="60" height="30" as="geometry" />
        </mxCell>
      </root>
    </mxGraphModel>
  </diagram>
</mxfile>
